<?xml version="1.0" encoding="UTF-8"?>
<svg xmlns="http://www.w3.org/2000/svg"
     viewBox="0 0 1254 1254"
     role="img"
     aria-label="Rulvar symbol, dark theme"
     color="#F6F7F8"
     shape-rendering="geometricPrecision">
  <title>Rulvar symbol, dark theme</title>
  <g fill="none" stroke="currentColor" stroke-width="48" stroke-linecap="butt" stroke-linejoin="round">
    <path d="M613 247 C596 247 584 251 569 260 L329 406 C311 417 302 436 302 457 V595"/>
    <path d="M641 247 C658 247 670 251 685 260 L925 406 C943 417 952 436 952 457 V595"/>
    <path d="M302 625 V765 C302 786 311 804 329 815 L569 961 C584 970 596 976 613 976"/>
    <path d="M952 625 V765 C952 786 943 804 925 815 L685 961 C670 970 658 976 641 976"/>
  </g>
  <path d="M520 807 H488 C454 807 438 785 438 753 V705 C438 672 458 656 489 656 H699 C730 656 751 635 751 605 C751 575 730 555 699 555 H487 C450 555 423 528 423 491 V478 C423 441 450 413 487 413 H757 C786 413 808 436 808 465 V756 C808 785 786 807 757 807 H606"
        fill="none" stroke="currentColor" stroke-width="28" stroke-linecap="butt" stroke-linejoin="round"/>
  <g fill="currentColor">
    <circle cx="530" cy="413" r="36"/>
    <circle cx="641" cy="555" r="36"/>
    <circle cx="808" cy="730" r="36"/>
    <path d="M540 797 L590 758 Q609 743 607 767 L605 788 Q605 794 611 794 H622 V820 H611 Q605 820 605 826 L607 848 Q609 871 590 856 L540 817 Q526 807 540 797 Z"/>
  </g>
</svg>
